<?xml version="1.0" encoding="UTF-8"?>
<svg version="1.1" xmlns="http://www.w3.org/2000/svg" width="209" height="159">
<path d="M0 0 C68.97 0 137.94 0 209 0 C209 52.47 209 104.94 209 159 C140.03 159 71.06 159 0 159 C0 106.53 0 54.06 0 0 Z " fill="#0F162C" transform="translate(0,0)"/>
<path d="M0 0 C68.97 0 137.94 0 209 0 C209 52.47 209 104.94 209 159 C140.03 159 71.06 159 0 159 C0 106.53 0 54.06 0 0 Z M15.65635681 16.04821777 C13.07965796 20.64013529 13.45141399 25.0491168 13.49829102 30.22851562 C13.49288803 31.36238205 13.48748505 32.49624847 13.48191833 33.66447449 C13.4694125 37.41199861 13.48593551 41.15875732 13.50390625 44.90625 C13.50375131 47.51029501 13.5022631 50.11434025 13.49949646 52.71838379 C13.49679655 58.17579074 13.51025081 63.63297748 13.53344727 69.09033203 C13.56005584 75.39395643 13.56180341 81.69721272 13.5500589 88.00087404 C13.53926825 94.07230725 13.54557964 100.14358636 13.55961418 106.2150116 C13.56413274 108.79542148 13.56446196 111.37584218 13.56054878 113.95625305 C13.55764081 117.56155647 13.57412496 121.16625709 13.59594727 124.77148438 C13.59144562 125.83968918 13.58694397 126.90789398 13.58230591 128.00846863 C13.64945731 134.68049141 14.50124862 138.1889047 19 143.25 C22.55990688 146.36491852 25.85073845 146.13056491 30.39460754 146.14717102 C31.0463058 146.15084771 31.69800406 146.1545244 32.36945075 146.1583125 C34.55726223 146.16934198 36.74502621 146.1731919 38.93286133 146.17700195 C40.49990489 146.1832671 42.06694697 146.18991395 43.63398743 146.19691467 C48.78332485 146.2179492 53.93266256 146.22831564 59.08203125 146.23828125 C60.85472822 146.24232886 62.62742504 146.24644578 64.40012169 146.25063133 C72.72738636 146.26968069 81.05464218 146.28391295 89.38192445 146.2922433 C98.99521436 146.30201893 108.60827422 146.32834793 118.22148305 146.36874419 C125.65172643 146.39889631 133.08190383 146.41371127 140.51220721 146.41702431 C144.95023122 146.41937561 149.38800939 146.42834643 153.82596779 146.45348549 C158.00143286 146.47675586 162.17649001 146.48100375 166.3520031 146.47072411 C167.88304119 146.4702284 169.4140993 146.47655922 170.94507599 146.49028015 C173.03868576 146.50799124 175.13083023 146.50089893 177.22444153 146.48774719 C178.39490933 146.49013555 179.56537714 146.4925239 180.77131367 146.49498463 C185.74968827 145.73175815 189.80033964 142.87327307 193 139 C193.96218193 136.11345422 194.13199301 134.27648927 194.14717102 131.27580261 C194.15432632 130.30430771 194.16148163 129.33281281 194.16885376 128.33187866 C194.17154266 127.26740509 194.17423157 126.20293152 194.17700195 125.10620117 C194.18685875 123.42287941 194.18685875 123.42287941 194.19691467 121.70555115 C194.21665685 117.9846897 194.22831157 114.26386861 194.23828125 110.54296875 C194.24235678 109.27343164 194.2464323 108.00389454 194.25063133 106.69588661 C194.26934309 100.67094988 194.2839089 94.64603765 194.2922433 88.62107962 C194.30201495 81.67241375 194.32833511 74.72406649 194.36874419 67.77551287 C194.4025676 61.75217802 194.41439024 55.72899764 194.41844749 49.70556068 C194.42332399 47.14548899 194.43496798 44.58542097 194.45348549 42.02541161 C194.47778348 38.4440092 194.4769286 34.86344169 194.4699707 31.28198242 C194.48278076 30.22358154 194.49559082 29.16518066 194.50878906 28.07470703 C194.46735985 22.2279613 194.13831095 18.48983977 190 14 C185.61497972 10.57600818 182.79120948 9.49923585 177.24462891 9.49206543 C176.26323661 9.48270549 176.26323661 9.48270549 175.2620182 9.47315645 C173.08315962 9.45727977 170.90542814 9.46980835 168.7265625 9.48242188 C167.15907136 9.47699833 165.59158531 9.46987437 164.02410889 9.46118164 C159.77613536 9.44297277 155.52855117 9.45000562 151.28057098 9.46269798 C146.83107977 9.47283832 142.38162146 9.46342943 137.93212891 9.45715332 C130.46055122 9.44987992 122.98913178 9.45945652 115.51757812 9.47851562 C106.88441345 9.50028382 98.25162666 9.49323223 89.61847115 9.47121 C82.20087517 9.45304721 74.78339282 9.45050197 67.36578178 9.46096468 C62.93790367 9.46719479 58.51020307 9.46804856 54.08233643 9.45481873 C49.91908362 9.443248 45.75631713 9.45130796 41.59311676 9.47439575 C40.0669358 9.47967636 38.54071378 9.47818011 37.01454926 9.46934509 C34.92760759 9.45837929 32.84221462 9.47216234 30.75537109 9.49206543 C29.58879974 9.49357353 28.42222839 9.49508163 27.2203064 9.49663544 C22.33561311 10.26015952 19.30394042 12.86042638 15.65635681 16.04821777 Z " fill="#0F162C" transform="translate(0,0)"/>
<path d="M0 0 C0.65255268 -0.00453111 1.30510536 -0.00906223 1.97743237 -0.01373065 C4.16220196 -0.02638246 6.34672251 -0.02475381 8.53152466 -0.02310181 C10.09871745 -0.02908658 11.6659073 -0.035892 13.23309326 -0.04345703 C17.48933762 -0.0611294 21.74550158 -0.06581293 26.00177908 -0.0670886 C29.55544227 -0.06898798 33.10908675 -0.07634596 36.66274273 -0.08343279 C45.04739844 -0.099719 53.4320112 -0.10460153 61.81668091 -0.10317993 C70.46454803 -0.10197837 79.11216562 -0.12308249 87.75996959 -0.15466726 C95.18599683 -0.18082269 102.61194254 -0.19154754 110.03801548 -0.19026911 C114.47265653 -0.18975927 118.90707584 -0.1954548 123.34167099 -0.21662521 C127.51306487 -0.23599538 131.68402521 -0.23614064 135.85543442 -0.22159195 C137.38485345 -0.21950122 138.91429953 -0.22422052 140.44367218 -0.23631287 C142.53505922 -0.25177558 144.62495318 -0.24245298 146.71630859 -0.22705078 C147.88547758 -0.22814032 149.05464657 -0.22922985 150.25924492 -0.2303524 C155.33257511 0.55249806 158.41483436 3.10431628 161.82878113 6.81428528 C164.19532129 11.74800188 164.03638038 16.11109321 163.98684692 21.51766968 C163.9949514 23.204058 163.9949514 23.204058 164.0032196 24.92451477 C164.01570886 28.63413966 163.99921449 32.34298886 163.98123169 36.05258179 C163.98138666 38.63277731 163.98287532 41.21297307 163.98564148 43.79316711 C163.98702554 49.19754203 163.97490029 54.6016317 163.95169067 60.00595093 C163.92506968 66.2476812 163.92333943 72.48903975 163.93507904 78.73080736 C163.94586941 84.7451137 163.93955913 90.75925017 163.92552376 96.77355766 C163.92100584 99.32884772 163.92067542 101.88414871 163.92458916 104.43943977 C163.92749713 108.00871375 163.91101353 111.57737886 163.88919067 115.14657593 C163.89594315 116.73250046 163.89594315 116.73250046 163.90283203 118.35046387 C163.81175862 127.30867086 163.81175862 127.30867086 160.48513794 131.26742554 C155.77761022 135.40086451 153.42662975 136.3920679 147.20405579 136.40786743 C146.55250639 136.41083855 145.90095699 136.41380968 145.22966367 136.41687083 C143.03640722 136.42557416 140.84320524 136.42706745 138.64993286 136.42855835 C137.08141462 136.4331854 135.51289751 136.4382099 133.94438171 136.44360352 C129.67570595 136.45674106 125.40704593 136.46317518 121.13835311 136.46761417 C118.47255157 136.47054291 115.80675434 136.47464735 113.14095497 136.47911835 C104.80354144 136.49279726 96.46613776 136.50246181 88.12871379 136.50632024 C78.49846569 136.51080118 68.86835952 136.52834906 59.23815459 136.55732083 C51.79860428 136.57892657 44.35909393 136.58902394 36.91951257 136.59036136 C32.47428806 136.59141024 28.02919689 136.59733568 23.58400536 136.61518097 C19.40203941 136.6316424 15.22030731 136.6338266 11.03832054 136.62504196 C9.50364557 136.62427053 7.96895814 136.62862829 6.43431473 136.63850021 C4.338321 136.65119199 2.2431589 136.64535885 0.14717102 136.63491821 C-1.0255174 136.63638477 -2.19820581 136.63785133 -3.40643024 136.63936234 C-8.6948116 136.00658551 -12.07521157 133.19845466 -15.51486206 129.26742554 C-16.47799885 126.37801517 -16.65122264 124.51750587 -16.67549133 121.51199341 C-16.68553696 120.53352951 -16.69558258 119.55506561 -16.70593262 118.54695129 C-16.71176361 117.47469803 -16.7175946 116.40244476 -16.72360229 115.29769897 C-16.73338608 114.16733719 -16.74316986 113.0369754 -16.75325012 111.87236023 C-16.78321571 108.12385235 -16.80459203 104.37538015 -16.82345581 100.62680054 C-16.83002764 99.34747902 -16.83659946 98.0681575 -16.84337044 96.75006866 C-16.86925795 91.37305514 -16.89274655 85.99605482 -16.90786648 80.61899948 C-16.9297646 72.922656 -16.9717237 65.22701084 -17.04130405 57.53094649 C-17.09431554 51.4606264 -17.11435622 45.39058183 -17.12306404 39.32004547 C-17.13163082 36.74122955 -17.15047863 34.16242649 -17.17980766 31.58376312 C-17.21866092 27.97353152 -17.21976367 24.36512079 -17.21188354 20.75473022 C-17.23188416 19.69057388 -17.25188477 18.62641754 -17.27249146 17.53001404 C-17.21323216 11.47919396 -16.44800444 8.00203927 -12.1934824 3.59013748 C-8.15817837 0.41041619 -5.13004143 0.01471592 0 0 Z M-5.51486206 13.26742554 C-5.61256407 14.69456174 -5.64117901 16.12649983 -5.6418457 17.55697632 C-5.64466553 18.48246277 -5.64748535 19.40794922 -5.65039062 20.36148071 C-5.64836639 21.38489563 -5.64634216 22.40831055 -5.64425659 23.46273804 C-5.64600891 24.53417053 -5.64776123 25.60560303 -5.64956665 26.70950317 C-5.65398759 30.27049351 -5.65104632 33.83143465 -5.64767456 37.39242554 C-5.64834753 39.85482798 -5.6493175 42.31723036 -5.65057373 44.77963257 C-5.65205103 49.94809601 -5.64989511 55.11654222 -5.64523315 60.28500366 C-5.63953586 66.92683281 -5.64281469 73.56862155 -5.64880562 80.21044922 C-5.65241036 85.29745796 -5.65127305 90.38445704 -5.64867783 95.47146606 C-5.64800832 97.92121383 -5.64883781 100.37096247 -5.65115738 102.82070923 C-5.65368248 106.23786764 -5.64984532 109.65495961 -5.64425659 113.07211304 C-5.64628082 114.09552795 -5.64830505 115.11894287 -5.65039062 116.17337036 C-5.6475708 117.09885681 -5.64475098 118.02434326 -5.6418457 118.97787476 C-5.64128016 120.19131058 -5.64128016 120.19131058 -5.6407032 121.42926025 C-5.71590043 123.28544047 -5.71590043 123.28544047 -4.51486206 124.26742554 C-2.48991584 124.36418967 -0.46153664 124.3892954 1.5657196 124.38768005 C2.52867782 124.38896169 2.52867782 124.38896169 3.51108974 124.39026922 C5.67767848 124.39192575 7.84419101 124.38639986 10.01077271 124.38095093 C11.55769855 124.38066907 13.10462453 124.38082677 14.65155029 124.38139343 C18.86417826 124.38168145 23.076778 124.37578403 27.28939939 124.36881948 C31.68699582 124.36258666 36.08459283 124.3619822 40.48219299 124.36079407 C48.81554307 124.35768054 57.14888009 124.34946686 65.4822244 124.33944458 C74.96695048 124.32828411 84.45167716 124.32277316 93.93640816 124.31774914 C113.45265883 124.30728426 132.96889734 124.28968441 152.48513794 124.26742554 C152.50846805 109.81209743 152.52605125 95.35677223 152.53695011 80.90142918 C152.54211283 74.19000686 152.54915507 67.47859622 152.56057739 60.7671814 C152.57140359 54.29628818 152.5774142 47.82540711 152.58001518 41.35450554 C152.58186992 38.87963609 152.58549144 36.40476734 152.590868 33.92990303 C152.59807487 30.47672181 152.59912903 27.02359152 152.59866333 23.57040405 C152.60225861 22.53606735 152.60585388 21.50173065 152.60955811 20.43605042 C152.60749611 19.03303177 152.60749611 19.03303177 152.60539246 17.60166931 C152.60631425 16.78403893 152.60723604 15.96640856 152.60818577 15.1240015 C152.68883016 13.25151885 152.68883016 13.25151885 151.48513794 12.26742554 C149.47516334 12.16848905 147.46165725 12.14110271 145.44924927 12.14044189 C144.13671173 12.13762207 142.82417419 12.13480225 141.47186279 12.13189697 C140.00363146 12.13384157 138.53540025 12.13588976 137.06716919 12.13803101 C135.53171751 12.13667703 133.99626616 12.13489712 132.46081543 12.13272095 C128.27911464 12.12814616 124.0974384 12.12993636 119.91573715 12.13310003 C115.54930299 12.1356234 111.182871 12.13328616 106.81643677 12.13171387 C99.48236715 12.1298921 92.14830759 12.13229866 84.8142395 12.13705444 C76.32264176 12.14249708 67.83106802 12.14073442 59.33947086 12.13522804 C52.06221085 12.1306971 44.78495808 12.13004626 37.50769711 12.13266671 C33.1554163 12.13422959 28.80314679 12.13442295 24.4508667 12.13113022 C20.36009212 12.12825178 16.26934863 12.13022668 12.17857742 12.13602448 C10.67286862 12.13735222 9.16715722 12.13695771 7.66144943 12.13476181 C5.61464274 12.13205091 3.56783037 12.13604459 1.52102661 12.14044189 C0.37284958 12.14081892 -0.77532745 12.14119595 -1.95829773 12.1415844 C-4.44862053 11.97735465 -4.44862053 11.97735465 -5.51486206 13.26742554 Z " fill="#763AE2" transform="translate(30.514862060546875,9.732574462890625)"/>
<path d="M0 0 C2.38921426 0.97730453 4.4226717 2.16012942 6.59375 3.55957031 C7.47200439 4.12168213 8.35025879 4.68379395 9.25512695 5.26293945 C10.19187256 5.87129639 11.12861816 6.47965332 12.09375 7.10644531 C13.05821045 7.72962646 14.0226709 8.35280762 15.01635742 8.99487305 C17.03062841 10.29662174 19.04387736 11.59995312 21.05615234 12.90478516 C24.00564119 14.7998353 26.97629265 16.65556571 29.95703125 18.50097656 C31.77347354 19.64024202 33.58988127 20.77956259 35.40625 21.91894531 C36.69499023 22.70350098 36.69499023 22.70350098 38.00976562 23.50390625 C38.79673828 24.0030957 39.58371094 24.50228516 40.39453125 25.01660156 C41.08716064 25.44593994 41.77979004 25.87527832 42.4934082 26.31762695 C44.59755633 28.34088334 44.76450085 30.01162503 45.09375 32.85644531 C38.07801675 37.97847164 30.79925015 42.62335154 23.42773438 47.21166992 C19.46734991 49.68613122 15.55824228 52.19483676 11.7421875 54.88769531 C11.07082764 55.35715576 10.39946777 55.82661621 9.70776367 56.31030273 C8.45793583 57.19172359 7.21774109 58.08702762 5.98950195 58.99829102 C2.99511264 61.09897426 1.59236535 61.91811125 -2.10620117 61.46069336 C-3.03021729 61.2612915 -3.9542334 61.06188965 -4.90625 60.85644531 C-4.97574335 53.34606817 -5.02905778 45.83572435 -5.06168652 38.32509899 C-5.07734635 34.83762955 -5.0985898 31.35037999 -5.13256836 27.86303711 C-5.1713828 23.85430788 -5.1859565 19.84580983 -5.19921875 15.83691406 C-5.21470261 14.58371872 -5.23018646 13.33052338 -5.24613953 12.03935242 C-5.24636612 10.8783754 -5.24659271 9.71739838 -5.24682617 8.52124023 C-5.25348801 7.4975383 -5.26014984 6.47383636 -5.26701355 5.41911316 C-4.90625 2.85644531 -4.90625 2.85644531 -3.50410461 0.99342346 C-1.90625 -0.14355469 -1.90625 -0.14355469 0 0 Z " fill="#773AE3" transform="translate(85.90625,47.1435546875)"/>
<path d="M0 0 C1.27123309 0.24377963 1.27123309 0.24377963 2.56814766 0.49248409 C6.07395763 1.01093715 9.36693959 1.12298387 12.90963745 1.12025452 C13.91575583 1.12153615 13.91575583 1.12153615 14.94219983 1.12284368 C17.17617524 1.12448287 19.41007455 1.11900283 21.64404297 1.11352539 C23.25081887 1.11324316 24.8575949 1.11340196 26.46437073 1.1139679 C30.81719373 1.11425445 35.1699891 1.10838058 39.52280569 1.10139394 C44.07518975 1.09513686 48.62757446 1.09455474 53.17996216 1.09336853 C61.79647329 1.09026216 70.4129717 1.08205812 79.02947724 1.07201904 C88.84079435 1.06083635 98.65211208 1.05534202 108.46343398 1.05032361 C128.64229641 1.03987494 148.8211474 1.02228893 169 1 C165.56098627 4.18804187 163.09475805 4.37648706 158.47840881 4.38095093 C157.82515057 4.3856309 157.17189232 4.39031087 156.49883837 4.39513266 C154.31159995 4.40709117 152.12498712 4.39762257 149.93774414 4.38818359 C148.36892837 4.39224897 146.80011546 4.39759067 145.23130798 4.40411377 C140.97094311 4.41779836 136.71079601 4.41248375 132.45042729 4.40297651 C127.99245314 4.39538449 123.53449771 4.40242438 119.07652283 4.40713501 C111.58882295 4.41259446 104.1012118 4.40539657 96.61352539 4.39111328 C87.95771767 4.37479235 79.30212201 4.38007043 70.64631945 4.3965925 C63.21520583 4.41020908 55.78415603 4.41212601 48.35303396 4.40427649 C43.91456625 4.39960015 39.47619819 4.39897392 35.03773689 4.40888596 C30.86392233 4.41755563 26.69038091 4.41153377 22.51659584 4.39420319 C20.98515527 4.39023808 19.45369169 4.39137282 17.92226028 4.39799118 C15.83072203 4.40619635 13.7400575 4.39589871 11.64857483 4.38095093 C10.47848405 4.37981985 9.30839327 4.37868877 8.10284519 4.37752342 C4.67953803 3.96100937 2.75695146 3.03510114 0 1 C0 0.67 0 0.34 0 0 Z " fill="#5E34B5" transform="translate(19,142)"/>
</svg>
