<?xml version="1.0" encoding="UTF-8"?>
<svg version="1.1" xmlns="http://www.w3.org/2000/svg" width="308" height="233">
<path d="M0 0 C101.64 0 203.28 0 308 0 C308 76.89 308 153.78 308 233 C206.36 233 104.72 233 0 233 C0 156.11 0 79.22 0 0 Z " fill="#FDFDFD" transform="translate(0,0)"/>
<path d="M0 0 C101.64 0 203.28 0 308 0 C308 7.26 308 14.52 308 22 C221.87 22 135.74 22 47 22 C47 83.38 47 144.76 47 208 C133.13 208 219.26 208 308 208 C308 216.25 308 224.5 308 233 C206.36 233 104.72 233 0 233 C0 156.11 0 79.22 0 0 Z " fill="#050505" transform="translate(0,0)"/>
<path d="M0 0 C101.64 0 203.28 0 308 0 C308 0.66 308 1.32 308 2 C307.17094577 2.00032605 307.17094577 2.00032605 306.32514298 2.00065869 C273.54892515 2.01418203 240.77285347 2.05369973 207.99671621 2.12685562 C204.05900912 2.13562211 200.1213016 2.14417196 196.18359375 2.15258789 C195.39968517 2.15426695 194.61577659 2.15594602 193.8081132 2.15767596 C181.124304 2.18432726 168.44053999 2.1934397 155.75670566 2.19604143 C142.73659139 2.19910363 129.71660753 2.22108119 116.69655216 2.26052457 C108.66597924 2.28425929 100.63566686 2.29333646 92.60506372 2.28351311 C86.44145574 2.27755617 80.27818779 2.29794899 74.11465645 2.32806015 C71.59038038 2.33629454 69.06605993 2.33604215 66.5417881 2.32659721 C63.08968182 2.31496087 59.63903536 2.33411852 56.18704224 2.36076355 C55.19285125 2.35009029 54.19866026 2.33941703 53.17434227 2.32842034 C45.68229031 2.43598262 38.99288251 4.34995688 33.34448063 9.51337212 C28.7578196 14.79818196 27.70359462 18.88779147 27.73257446 25.75421143 C27.72804335 26.5401102 27.72351224 27.32600898 27.71884382 28.13572288 C27.70617327 30.77185662 27.7078219 33.40778447 27.70947266 36.04394531 C27.70348898 37.93301154 27.6966838 39.82207531 27.68911743 41.71113586 C27.67143181 46.84558297 27.66676091 51.97996344 27.66548586 57.11443806 C27.66358728 61.40108309 27.65623004 65.68771259 27.64914167 69.97435164 C27.63284964 80.08984269 27.62797338 90.20529813 27.62939453 100.32080078 C27.63059554 110.75224727 27.60950373 121.1834867 27.5779072 131.6148808 C27.55174353 140.57213477 27.54102731 149.52932115 27.54230535 158.48661304 C27.54281505 163.83568517 27.53712788 169.18457343 27.51594925 174.53360748 C27.49656595 179.5667983 27.49644314 184.5996299 27.51098251 189.63283348 C27.51307173 191.47747256 27.50836298 193.32213413 27.4962616 195.1667347 C27.48077839 197.690861 27.49013691 200.21375344 27.50552368 202.737854 C27.49523656 203.46277581 27.48494943 204.18769763 27.47435057 204.93458676 C27.56618305 211.78146177 29.97769693 216.9317355 34.75 221.8125 C42.04524733 226.72276263 48.33926544 227.44042933 56.90856934 227.39872742 C57.98529545 227.40537424 59.06202157 227.41202107 60.17137575 227.41886932 C63.76734229 227.43747256 67.36297531 227.43489575 70.95898438 227.43237305 C73.54141712 227.4413918 76.12384559 227.4517193 78.70626831 227.46325684 C84.25990926 227.48600774 89.81348763 227.49792187 95.36717224 227.50238609 C103.39675866 227.50885633 111.42623212 227.53180903 119.45577294 227.55872939 C132.48449678 227.6019652 145.51321585 227.63195024 158.54199219 227.65356445 C171.1950108 227.67458376 183.84799044 227.70186716 196.50097656 227.73754883 C197.28146762 227.73974765 198.06195867 227.74194648 198.86610097 227.74421193 C202.78176286 227.75528182 206.69742438 227.76647459 210.61308575 227.77772844 C243.07535807 227.87086813 275.5376447 227.94248713 308 228 C308 229.65 308 231.3 308 233 C206.36 233 104.72 233 0 233 C0 156.11 0 79.22 0 0 Z " fill="#FEFEFE" transform="translate(0,0)"/>
<path d="M0 0 C4.44798327 1.14652985 7.4122383 2.94541601 11.1484375 5.53515625 C12.65540209 6.54423618 14.16327131 7.55196597 15.671875 8.55859375 C16.4875293 9.10741211 17.30318359 9.65623047 18.14355469 10.22167969 C22.97474502 13.43828729 27.87928214 16.54057889 32.7734375 19.66015625 C34.90369502 21.0246628 37.03390259 22.38924732 39.1640625 23.75390625 C43.10480038 26.27428254 47.05218537 28.78342158 51.0098877 31.27702332 C52.73835933 32.36664307 54.46513059 33.45890709 56.19140625 34.55200195 C58.36252498 35.92565452 60.53685899 37.29424242 62.71484375 38.65698242 C73.09556878 45.23932125 73.09556878 45.23932125 75.7734375 48.97265625 C75.9609375 52.01171875 75.9609375 52.01171875 74.7734375 54.97265625 C72.76417666 56.7495963 71.04379735 57.99070772 68.7734375 59.34765625 C68.11972168 59.76063965 67.46600586 60.17362305 66.79248047 60.59912109 C65.30091861 61.54035857 63.80428297 62.47358517 62.30371094 63.40039062 C58.52327142 65.74948658 54.78741548 68.16688927 51.04467773 70.57543945 C47.84794558 72.63010946 44.64558334 74.67571195 41.44140625 76.71875 C36.92005309 79.60192205 32.40167004 82.48963261 27.88671875 85.3828125 C27.32426453 85.74316589 26.7618103 86.10351929 26.18231201 86.47479248 C23.4867507 88.20181497 20.79136294 89.92910756 18.09619141 91.65673828 C16.18649872 92.87963661 14.27568307 94.10078383 12.36352539 95.31982422 C10.70038606 96.38113568 9.04042232 97.44744932 7.38452148 98.52001953 C6.32019897 99.20233643 6.32019897 99.20233643 5.234375 99.8984375 C4.62770996 100.29071533 4.02104492 100.68299316 3.39599609 101.0871582 C1.03515221 102.37556939 -0.61579559 102.56940297 -3.2265625 101.97265625 C-5.14959706 100.44394169 -6.10947875 99.54951958 -6.60408592 97.11262512 C-6.605217 96.41134995 -6.60634808 95.71007477 -6.60751343 94.98754883 C-6.6159729 94.18000153 -6.62443237 93.37245422 -6.63314819 92.54043579 C-6.6270755 91.65826385 -6.62100281 90.77609192 -6.61474609 89.8671875 C-6.62000305 88.93522552 -6.62526001 88.00326355 -6.63067627 87.0430603 C-6.64389945 83.9569227 -6.63512989 80.87129927 -6.625 77.78515625 C-6.62702007 75.6442861 -6.62993094 73.50341662 -6.63369751 71.36254883 C-6.63812401 66.87346858 -6.63167923 62.38456728 -6.61767578 57.89550781 C-6.60058383 52.13491065 -6.61042326 46.37473277 -6.62839317 40.614151 C-6.63922214 36.19271676 -6.63578873 31.77138228 -6.6280098 27.34994507 C-6.62600534 25.22561595 -6.62847564 23.10127785 -6.63544846 20.97695923 C-6.64304825 18.01043627 -6.6314792 15.04459691 -6.61474609 12.078125 C-6.62081879 11.19595306 -6.62689148 10.31378113 -6.63314819 9.40487671 C-6.62468872 8.59732941 -6.61622925 7.7897821 -6.60751343 6.95776367 C-6.60581681 5.90585091 -6.60581681 5.90585091 -6.60408592 4.83268738 C-5.796663 0.85457191 -3.86612721 -0.03276379 0 0 Z " fill="#010101" transform="translate(146.2265625,64.02734375)"/>
</svg>
